<?xml version="1.0" encoding="UTF-8"?>
<svg xmlns="http://www.w3.org/2000/svg" width="60" height="55" viewBox="0 0 60 55">
  <g id="php" transform="translate(0 -21.333)">
    <g id="Group_261" data-name="Group 261" transform="translate(0 21.333)">
      <g id="Group_260" data-name="Group 260" transform="translate(0 0)">
        <path id="Path_1196" data-name="Path 1196" d="M51.25,43.833a1.251,1.251,0,0,0,1.25-1.25v-15a6.257,6.257,0,0,0-6.25-6.25h-40A6.257,6.257,0,0,0,0,27.583v42.5a6.257,6.257,0,0,0,6.25,6.25h40a6.257,6.257,0,0,0,6.25-6.25v-7.5a1.25,1.25,0,0,0-2.5,0v7.5a3.755,3.755,0,0,1-3.75,3.75h-40a3.755,3.755,0,0,1-3.75-3.75V33.833H50v8.75A1.25,1.25,0,0,0,51.25,43.833ZM2.5,31.333v-3.75a3.755,3.755,0,0,1,3.75-3.75h40A3.755,3.755,0,0,1,50,27.583v3.75Z" transform="translate(0 -21.333)" fill="#fff"></path>
      </g>
    </g>
    <g id="Group_263" data-name="Group 263" transform="translate(5 26.333)">
      <g id="Group_262" data-name="Group 262" transform="translate(0 0)">
        <circle id="Ellipse_54" data-name="Ellipse 54" cx="1.25" cy="1.25" r="1.25" fill="#fff"></circle>
      </g>
    </g>
    <g id="Group_265" data-name="Group 265" transform="translate(10 26.333)">
      <g id="Group_264" data-name="Group 264" transform="translate(0 0)">
        <circle id="Ellipse_55" data-name="Ellipse 55" cx="1.25" cy="1.25" r="1.25" fill="#fff"></circle>
      </g>
    </g>
    <g id="Group_267" data-name="Group 267" transform="translate(15 26.333)">
      <g id="Group_266" data-name="Group 266" transform="translate(0 0)">
        <circle id="Ellipse_56" data-name="Ellipse 56" cx="1.25" cy="1.25" r="1.25" fill="#fff"></circle>
      </g>
    </g>
    <g id="Group_269" data-name="Group 269" transform="translate(52.5 46.333)">
      <g id="Group_268" data-name="Group 268">
        <path id="Path_1197" data-name="Path 1197" d="M451.75,234.667h-2.5a1.251,1.251,0,0,0-1.25,1.25v10a1.25,1.25,0,1,0,2.5,0v-3.75h1.25a3.75,3.75,0,1,0,0-7.5Zm0,5H450.5v-2.5h1.25a1.25,1.25,0,1,1,0,2.5Z" transform="translate(-448 -234.667)" fill="#fff"></path>
      </g>
    </g>
    <g id="Group_271" data-name="Group 271" transform="translate(30 46.333)">
      <g id="Group_270" data-name="Group 270">
        <path id="Path_1198" data-name="Path 1198" d="M259.75,234.667h-2.5a1.251,1.251,0,0,0-1.25,1.25v10a1.25,1.25,0,1,0,2.5,0v-3.75h1.25a3.75,3.75,0,1,0,0-7.5Zm0,5H258.5v-2.5h1.25a1.25,1.25,0,1,1,0,2.5Z" transform="translate(-256 -234.667)" fill="#fff"></path>
      </g>
    </g>
    <g id="Group_273" data-name="Group 273" transform="translate(40 46.333)">
      <g id="Group_272" data-name="Group 272">
        <path id="Path_1199" data-name="Path 1199" d="M350.082,234.667a1.251,1.251,0,0,0-1.25,1.25v3.75h-5v-3.75a1.25,1.25,0,1,0-2.5,0v10a1.25,1.25,0,1,0,2.5,0v-3.75h5v3.75a1.25,1.25,0,1,0,2.5,0v-10A1.25,1.25,0,0,0,350.082,234.667Z" transform="translate(-341.332 -234.667)" fill="#fff"></path>
      </g>
    </g>
  </g>
</svg>
