<svg xmlns="http://www.w3.org/2000/svg" width="60.001" height="55" viewBox="0 0 60.001 55">
  <g id="css" transform="translate(0 -21.336)">
    <g id="Group_217" data-name="Group 217" transform="translate(0 21.336)">
      <g id="Group_216" data-name="Group 216" transform="translate(0 0)">
        <path id="Path_1183" data-name="Path 1183" d="M51.25,43.836a1.251,1.251,0,0,0,1.25-1.25v-15a6.257,6.257,0,0,0-6.25-6.25h-40A6.257,6.257,0,0,0,0,27.586v42.5a6.257,6.257,0,0,0,6.25,6.25h40a6.257,6.257,0,0,0,6.25-6.25v-7.5a1.25,1.25,0,0,0-2.5,0v7.5a3.755,3.755,0,0,1-3.75,3.75h-40a3.755,3.755,0,0,1-3.75-3.75V33.836H50v8.75A1.251,1.251,0,0,0,51.25,43.836ZM2.5,31.336v-3.75a3.755,3.755,0,0,1,3.75-3.75h40A3.755,3.755,0,0,1,50,27.586v3.75Z" transform="translate(0 -21.336)" fill="#fff"/>
      </g>
    </g>
    <g id="Group_219" data-name="Group 219" transform="translate(5 26.336)">
      <g id="Group_218" data-name="Group 218">
        <circle id="Ellipse_45" data-name="Ellipse 45" cx="1.25" cy="1.25" r="1.25" fill="#fff"/>
      </g>
    </g>
    <g id="Group_221" data-name="Group 221" transform="translate(10 26.336)">
      <g id="Group_220" data-name="Group 220">
        <circle id="Ellipse_46" data-name="Ellipse 46" cx="1.25" cy="1.25" r="1.25" fill="#fff"/>
      </g>
    </g>
    <g id="Group_223" data-name="Group 223" transform="translate(15 26.336)">
      <g id="Group_222" data-name="Group 222">
        <circle id="Ellipse_47" data-name="Ellipse 47" cx="1.25" cy="1.25" r="1.25" fill="#fff"/>
      </g>
    </g>
    <g id="Group_225" data-name="Group 225" transform="translate(49.999 46.333)">
      <g id="Group_224" data-name="Group 224">
        <path id="Path_1184" data-name="Path 1184" d="M432.052,239.7l-.37-.062c-2.192-.358-2.52-.928-2.52-1.235,0-.5,1-1.25,2.5-1.25,1.48,0,2.455.7,2.5,1.207a1.251,1.251,0,0,0,2.49-.238c-.19-1.98-2.335-3.473-4.993-3.473-2.805,0-5,1.648-5,3.75,0,1.958,1.552,3.2,4.62,3.7l.2-1.232.165,1.3c2.077.343,2.515.863,2.515,1.238,0,.5-1,1.25-2.5,1.25-1.48,0-2.455-.705-2.5-1.21a1.251,1.251,0,0,0-2.49.238c.19,1.98,2.335,3.472,4.993,3.472,2.805,0,5-1.648,5-3.75C436.662,241.445,435.112,240.2,432.052,239.7Z" transform="translate(-426.661 -234.647)" fill="#fff"/>
      </g>
    </g>
    <g id="Group_227" data-name="Group 227" transform="translate(37.497 46.333)">
      <g id="Group_226" data-name="Group 226">
        <path id="Path_1185" data-name="Path 1185" d="M325.363,239.7l-.37-.062c-2.192-.358-2.52-.928-2.52-1.235,0-.5,1-1.25,2.5-1.25,1.48,0,2.455.705,2.5,1.207a1.251,1.251,0,0,0,2.49-.238c-.19-1.98-2.335-3.473-4.993-3.473-2.8,0-5,1.648-5,3.75,0,1.958,1.553,3.2,4.62,3.7l.2-1.232.167,1.3c2.075.343,2.512.863,2.512,1.238,0,.5-1,1.25-2.5,1.25-1.48,0-2.455-.705-2.5-1.21a1.251,1.251,0,0,0-2.49.238c.19,1.98,2.335,3.472,4.993,3.472,2.8,0,5-1.648,5-3.75C329.974,241.445,328.423,240.2,325.363,239.7Z" transform="translate(-319.973 -234.647)" fill="#fff"/>
      </g>
    </g>
    <g id="Group_229" data-name="Group 229" transform="translate(25 46.336)">
      <g id="Group_228" data-name="Group 228">
        <path id="Path_1186" data-name="Path 1186" d="M222.084,242.169a1.251,1.251,0,0,0-1.25,1.25,1.252,1.252,0,0,1-1.25,1.25h-2.5a1.252,1.252,0,0,1-1.25-1.25v-5a1.252,1.252,0,0,1,1.25-1.25h2.5a1.252,1.252,0,0,1,1.25,1.25,1.25,1.25,0,1,0,2.5,0,3.755,3.755,0,0,0-3.75-3.75h-2.5a3.755,3.755,0,0,0-3.75,3.75v5a3.755,3.755,0,0,0,3.75,3.75h2.5a3.755,3.755,0,0,0,3.75-3.75A1.251,1.251,0,0,0,222.084,242.169Z" transform="translate(-213.334 -234.669)" fill="#fff"/>
      </g>
    </g>
  </g>
</svg>
