<svg xmlns="http://www.w3.org/2000/svg" width="60" height="55" viewBox="0 0 60 55">
  <g id="html" transform="translate(0 -21.333)">
    <g id="Group_231" data-name="Group 231" transform="translate(0 21.333)">
      <g id="Group_230" data-name="Group 230" transform="translate(0 0)">
        <path id="Path_1187" data-name="Path 1187" d="M51.25,43.833a1.251,1.251,0,0,0,1.25-1.25v-15a6.257,6.257,0,0,0-6.25-6.25h-40A6.257,6.257,0,0,0,0,27.583v42.5a6.257,6.257,0,0,0,6.25,6.25h40a6.257,6.257,0,0,0,6.25-6.25v-7.5a1.25,1.25,0,0,0-2.5,0v7.5a3.755,3.755,0,0,1-3.75,3.75h-40a3.755,3.755,0,0,1-3.75-3.75V33.833H50v8.75A1.25,1.25,0,0,0,51.25,43.833ZM2.5,31.333v-3.75a3.755,3.755,0,0,1,3.75-3.75h40A3.755,3.755,0,0,1,50,27.583v3.75Z" transform="translate(0 -21.333)" fill="#fff"/>
      </g>
    </g>
    <g id="Group_233" data-name="Group 233" transform="translate(5 26.333)">
      <g id="Group_232" data-name="Group 232" transform="translate(0 0)">
        <circle id="Ellipse_48" data-name="Ellipse 48" cx="1.25" cy="1.25" r="1.25" fill="#fff"/>
      </g>
    </g>
    <g id="Group_235" data-name="Group 235" transform="translate(10 26.333)">
      <g id="Group_234" data-name="Group 234" transform="translate(0 0)">
        <circle id="Ellipse_49" data-name="Ellipse 49" cx="1.25" cy="1.25" r="1.25" fill="#fff"/>
      </g>
    </g>
    <g id="Group_237" data-name="Group 237" transform="translate(15 26.333)">
      <g id="Group_236" data-name="Group 236" transform="translate(0 0)">
        <circle id="Ellipse_50" data-name="Ellipse 50" cx="1.25" cy="1.25" r="1.25" fill="#fff"/>
      </g>
    </g>
    <g id="Group_239" data-name="Group 239" transform="translate(17.5 46.333)">
      <g id="Group_238" data-name="Group 238">
        <path id="Path_1188" data-name="Path 1188" d="M158.082,234.667a1.251,1.251,0,0,0-1.25,1.25v3.75h-5v-3.75a1.25,1.25,0,1,0-2.5,0v10a1.25,1.25,0,0,0,2.5,0v-3.75h5v3.75a1.25,1.25,0,0,0,2.5,0v-10A1.25,1.25,0,0,0,158.082,234.667Z" transform="translate(-149.332 -234.667)" fill="#fff"/>
      </g>
    </g>
    <g id="Group_241" data-name="Group 241" transform="translate(30 46.333)">
      <g id="Group_240" data-name="Group 240">
        <path id="Path_1189" data-name="Path 1189" d="M262.249,234.667h-5a1.25,1.25,0,1,0,0,2.5h1.25v8.75a1.25,1.25,0,0,0,2.5,0v-8.75h1.25a1.25,1.25,0,1,0,0-2.5Z" transform="translate(-255.999 -234.667)" fill="#fff"/>
      </g>
    </g>
    <g id="Group_243" data-name="Group 243" transform="translate(40 46.333)">
      <g id="Group_242" data-name="Group 242" transform="translate(0 0)">
        <path id="Path_1190" data-name="Path 1190" d="M350.561,234.763a1.24,1.24,0,0,0-1.363.27l-2.865,2.865-2.865-2.867a1.251,1.251,0,0,0-2.135.885v10a1.25,1.25,0,1,0,2.5,0v-6.982l1.618,1.615a1.251,1.251,0,0,0,1.768,0l1.615-1.615v6.982a1.25,1.25,0,0,0,2.5,0v-10A1.25,1.25,0,0,0,350.561,234.763Z" transform="translate(-341.333 -234.665)" fill="#fff"/>
      </g>
    </g>
    <g id="Group_245" data-name="Group 245" transform="translate(52.5 46.333)">
      <g id="Group_244" data-name="Group 244" transform="translate(0 0)">
        <path id="Path_1191" data-name="Path 1191" d="M454.25,244.666H450.5v-8.75a1.25,1.25,0,1,0-2.5,0v10a1.251,1.251,0,0,0,1.25,1.25h5a1.25,1.25,0,1,0,0-2.5Z" transform="translate(-448 -234.666)" fill="#fff"/>
      </g>
    </g>
  </g>
</svg>
