<svg xmlns="http://www.w3.org/2000/svg" width="60.003" height="55" viewBox="0 0 60.003 55">
  <g id="jsx" transform="translate(0 -21.346)">
    <g id="Group_247" data-name="Group 247" transform="translate(0 21.346)">
      <g id="Group_246" data-name="Group 246" transform="translate(0 0)">
        <path id="Path_1192" data-name="Path 1192" d="M51.25,43.846A1.251,1.251,0,0,0,52.5,42.6v-15a6.259,6.259,0,0,0-6.25-6.25h-40A6.259,6.259,0,0,0,0,27.6V70.1a6.259,6.259,0,0,0,6.25,6.25h40A6.259,6.259,0,0,0,52.5,70.1V62.6a1.25,1.25,0,1,0-2.5,0v7.5a3.755,3.755,0,0,1-3.75,3.75h-40A3.755,3.755,0,0,1,2.5,70.1V33.846H50V42.6A1.251,1.251,0,0,0,51.25,43.846ZM2.5,31.346V27.6a3.755,3.755,0,0,1,3.75-3.75h40A3.755,3.755,0,0,1,50,27.6v3.75Z" transform="translate(0 -21.346)" fill="#fff"/>
      </g>
    </g>
    <g id="Group_249" data-name="Group 249" transform="translate(5 26.346)">
      <g id="Group_248" data-name="Group 248" transform="translate(0 0)">
        <circle id="Ellipse_51" data-name="Ellipse 51" cx="1.25" cy="1.25" r="1.25" fill="#fff"/>
      </g>
    </g>
    <g id="Group_251" data-name="Group 251" transform="translate(10 26.346)">
      <g id="Group_250" data-name="Group 250" transform="translate(0 0)">
        <circle id="Ellipse_52" data-name="Ellipse 52" cx="1.25" cy="1.25" r="1.25" fill="#fff"/>
      </g>
    </g>
    <g id="Group_253" data-name="Group 253" transform="translate(15 26.346)">
      <g id="Group_252" data-name="Group 252" transform="translate(0 0)">
        <circle id="Ellipse_53" data-name="Ellipse 53" cx="1.25" cy="1.25" r="1.25" fill="#fff"/>
      </g>
    </g>
    <g id="Group_255" data-name="Group 255" transform="translate(37.499 46.346)">
      <g id="Group_254" data-name="Group 254">
        <path id="Path_1193" data-name="Path 1193" d="M325.385,239.727l-.37-.062c-2.192-.358-2.52-.928-2.52-1.235,0-.5,1-1.25,2.505-1.247,1.478,0,2.453.7,2.5,1.207a1.232,1.232,0,0,0,1.363,1.125,1.249,1.249,0,0,0,1.125-1.363c-.19-1.98-2.335-3.473-4.993-3.473-2.805,0-5,1.648-5,3.75,0,1.958,1.555,3.2,4.618,3.7l.2-1.232.167,1.3c2.078.343,2.513.863,2.513,1.238,0,.5-1,1.25-2.505,1.25-1.478,0-2.453-.7-2.5-1.21a1.228,1.228,0,0,0-1.363-1.125A1.249,1.249,0,0,0,320,243.707c.19,1.98,2.335,3.473,4.993,3.473,2.805,0,5-1.648,5-3.75C330,241.474,328.445,240.229,325.385,239.727Z" transform="translate(-319.995 -234.679)" fill="#fff"/>
      </g>
    </g>
    <g id="Group_257" data-name="Group 257" transform="translate(50 46.344)">
      <g id="Group_256" data-name="Group 256">
        <path id="Path_1194" data-name="Path 1194" d="M433.229,240.915l3.188-4.253a1.25,1.25,0,1,0-2-1.5l-2.75,3.668-2.753-3.668a1.25,1.25,0,1,0-2,1.5l3.19,4.253-3.187,4.247a1.25,1.25,0,0,0,2,1.5l2.75-3.665,2.747,3.665a1.25,1.25,0,1,0,2-1.5Z" transform="translate(-426.663 -234.66)" fill="#fff"/>
      </g>
    </g>
    <g id="Group_259" data-name="Group 259" transform="translate(27.5 46.346)">
      <g id="Group_258" data-name="Group 258">
        <path id="Path_1195" data-name="Path 1195" d="M240.916,234.679a1.251,1.251,0,0,0-1.25,1.25v7.5a1.25,1.25,0,1,1-2.5,0,1.25,1.25,0,1,0-2.5,0,3.75,3.75,0,0,0,7.5,0v-7.5A1.25,1.25,0,0,0,240.916,234.679Z" transform="translate(-234.666 -234.679)" fill="#fff"/>
      </g>
    </g>
  </g>
</svg>
